<?xml version="1.0" encoding="UTF-8" standalone="no"?>
<!-- Created with Inkscape (http://www.inkscape.org/) -->

<svg
   xmlns:dc="http://purl.org/dc/elements/1.1/"
   xmlns:cc="http://creativecommons.org/ns#"
   xmlns:rdf="http://www.w3.org/1999/02/22-rdf-syntax-ns#"
   xmlns:svg="http://www.w3.org/2000/svg"
   xmlns="http://www.w3.org/2000/svg"
   xmlns:xlink="http://www.w3.org/1999/xlink"
   xmlns:sodipodi="http://sodipodi.sourceforge.net/DTD/sodipodi-0.dtd"
   xmlns:inkscape="http://www.inkscape.org/namespaces/inkscape"
   version="1.1"
   id="svg29"
   xml:space="preserve"
   width="480"
   height="480"
   viewBox="0 0 480 480"
   sodipodi:docname="LTWC_logo_black_red.svg"
   inkscape:version="0.92.2 5c3e80d, 2017-08-06"
   inkscape:export-filename="/Users/tomjennings/Documents/projects/TWC/LTWC_logo_black_red.png"
   inkscape:export-xdpi="96"
   inkscape:export-ydpi="96"><metadata
     id="metadata35"><rdf:RDF><cc:Work
         rdf:about=""><dc:format>image/svg+xml</dc:format><dc:type
           rdf:resource="http://purl.org/dc/dcmitype/StillImage" /><dc:title></dc:title></cc:Work></rdf:RDF></metadata><defs
     id="defs33"><clipPath
       clipPathUnits="userSpaceOnUse"
       id="clipPath45"><path
         d="M 0,360 H 360 V 0 H 0 Z"
         id="path43"
         inkscape:connector-curvature="0" /></clipPath><clipPath
       id="clipPath1156"
       clipPathUnits="userSpaceOnUse"><path
         inkscape:connector-curvature="0"
         id="path1154"
         d="M 0,360 H 360 V 0 H 0 Z" /></clipPath></defs><sodipodi:namedview
     pagecolor="#ffffff"
     bordercolor="#666666"
     borderopacity="1"
     objecttolerance="10"
     gridtolerance="10"
     guidetolerance="10"
     inkscape:pageopacity="0"
     inkscape:pageshadow="2"
     inkscape:window-width="1276"
     inkscape:window-height="756"
     id="namedview31"
     showgrid="true"
     showguides="false"
     inkscape:guide-bbox="true"
     inkscape:zoom="0.5"
     inkscape:cx="139.37615"
     inkscape:cy="238.59355"
     inkscape:window-x="4"
     inkscape:window-y="0"
     inkscape:window-maximized="1"
     inkscape:current-layer="g974"
     inkscape:snap-grids="false"><sodipodi:guide
       position="239.84227,240.46849"
       orientation="1,0"
       id="guide4750"
       inkscape:locked="false" /><inkscape:grid
       type="xygrid"
       id="grid4761" /><sodipodi:guide
       position="0,0"
       orientation="0,480"
       id="guide1187"
       inkscape:locked="false" /><sodipodi:guide
       position="480,0"
       orientation="-480,0"
       id="guide1189"
       inkscape:locked="false" /><sodipodi:guide
       position="480,480"
       orientation="0,-480"
       id="guide1191"
       inkscape:locked="false" /><sodipodi:guide
       position="0,480"
       orientation="480,0"
       id="guide1193"
       inkscape:locked="false" /></sodipodi:namedview><g
     id="g37"
     inkscape:groupmode="layer"
     inkscape:label="TWC_logo_final"
     transform="matrix(1.3333333,0,0,-1.3333333,0,480)"
     style="display:inline"
     sodipodi:insensitive="true"><g
       id="g1158"
       transform="translate(121.7817,199.4143)"><path
         d="m 0,0 v -2.592 c 0,-2.304 -1.008,-3.601 -3.6,-3.601 -2.591,0 -3.601,1.297 -3.601,3.601 v 9.793 h 35.572 v -9.793 c 0,-2.304 -1.008,-3.601 -3.601,-3.601 -2.592,0 -3.6,1.297 -3.6,3.601 V 0 h -6.984 v -92.392 c 0,-2.304 -1.008,-0.599 -3.6,-0.599 -2.594,0 -3.602,1.295 -3.602,3.599 L 6.984,0 Z"
         style="fill:#ec2227;fill-opacity:1;fill-rule:nonzero;stroke:none"
         id="path1160"
         inkscape:connector-curvature="0" /></g><g
       id="g1162"
       transform="translate(175.686,150.594)"><path
         d="m 0,0 h -5.4 c -2.522,0 -3.168,0.432 -4.393,2.592 l -2.52,4.392 c -0.937,1.584 -1.009,1.729 -1.009,3.672 v 99.354 c 0,2.304 1.009,3.601 3.601,3.601 2.592,0 3.6,-1.297 3.6,-3.601 V 10.656 l 1.943,-3.455 h 3.098 l 1.943,3.455 v 22.682 c 0,2.232 1.008,4.25 3.602,4.25 2.592,0 3.599,-2.018 3.599,-4.25 V 10.656 l 1.944,-3.455 h 3.096 l 1.945,3.455 V 52.42 c 0,2.305 1.008,3.601 3.599,3.601 2.593,0 3.602,-1.296 3.602,-3.601 V 10.656 c 0,-1.943 -0.072,-2.088 -1.009,-3.672 L 18.721,2.592 C 17.497,0.432 16.849,0 14.328,0 h -5.4"
         style="fill:#231f20;fill-opacity:1;fill-rule:nonzero;stroke:none"
         id="path1164"
         inkscape:connector-curvature="0" /></g><g
       id="g1166"
       transform="translate(227.7309,150.594)"><path
         d="m 0,0 c -5.4,0 -8.496,2.16 -10.801,6.84 l -6.625,13.394 c -1.223,2.448 -1.943,4.752 -1.943,7.561 0,3.168 0.576,5.111 2.015,7.992 l 6.625,13.32 c 2.448,4.969 5.544,6.914 11.088,6.914 h 12.243 c 1.584,0 3.599,-0.865 3.599,-3.601 0,-2.592 -1.943,-3.6 -3.599,-3.6 H 0.576 c -3.096,0 -3.6,-0.289 -4.969,-3.025 l -6.263,-12.527 c -0.937,-1.946 -1.513,-3.243 -1.513,-5.473 0,-2.018 0.648,-3.24 1.513,-4.969 l 6.12,-12.457 c 1.44,-2.953 2.16,-3.168 5.4,-3.168 h 30.685 c 1.584,0 3.599,-0.865 3.599,-3.601 0,-2.592 -1.943,-3.6 -3.599,-3.6 z"
         style="fill:#ec2227;fill-opacity:1;fill-rule:nonzero;stroke:none"
         id="path1168"
         inkscape:connector-curvature="0" /></g><g
       id="g1170"
       transform="matrix(1.010084,0,0,1.010084,180.00051,262.92942)"><path
         d="m 0,0 c -45.271,0 -82.102,-36.831 -82.102,-82.102 0,-45.271 36.831,-82.101 82.102,-82.101 45.271,0 82.101,36.83 82.101,82.101 C 82.101,-36.831 45.271,0 0,0 m 0,-171.203 c -49.131,0 -89.102,39.971 -89.102,89.101 C -89.102,-32.971 -49.131,7 0,7 49.13,7 89.101,-32.971 89.101,-82.102 89.101,-131.232 49.13,-171.203 0,-171.203"
         style="fill:#231f20;fill-opacity:1;fill-rule:nonzero;stroke:none"
         id="path1172"
         inkscape:connector-curvature="0" /></g></g><g
     inkscape:groupmode="layer"
     id="layer1"
     inkscape:label="Text"
     style="display:inline"><path
       style="fill:none;fill-opacity:1;stroke:none;stroke-width:5;stroke-miterlimit:4;stroke-dasharray:none;stroke-opacity:1"
       d="m 177.25,330.20635 -4,-2.87453 -0.1271,-57.61591 L 172.9958,212.1 H 167.9979 163 v 3 c 0,3.91748 -0.96641,5 -4.46371,5 -2.06605,0 -2.63097,-0.21264 -3.5,-1.31743 C 154.09714,217.58863 154,216.79189 154,210.28257 V 203.1 h 23.5 23.5 v 7.18257 c 0,6.50932 -0.0971,7.30606 -1.03629,8.5 -0.86903,1.10479 -1.43395,1.31743 -3.5,1.31743 -3.4973,0 -4.46371,-1.08252 -4.46371,-5 v -3 h -5 -5 v 60.5 c 0,33.275 -0.16875,60.49569 -0.375,60.49043 -0.20625,-0.005 -2.175,-1.3031 -4.375,-2.88408 z"
       id="path4768"
       inkscape:connector-curvature="0" /><path
       style="fill:none;fill-opacity:1;stroke:none;stroke-width:5;stroke-miterlimit:4;stroke-dasharray:none;stroke-opacity:1"
       d="m 177.25,330.20635 -4,-2.87453 -0.1271,-57.61591 L 172.9958,212.1 H 167.9979 163 v 3 c 0,3.91748 -0.96641,5 -4.46371,5 -2.06605,0 -2.63097,-0.21264 -3.5,-1.31743 C 154.09714,217.58863 154,216.79189 154,210.28257 V 203.1 h 23.5 23.5 v 7.18257 c 0,6.50932 -0.0971,7.30606 -1.03629,8.5 -0.86903,1.10479 -1.43395,1.31743 -3.5,1.31743 -3.4973,0 -4.46371,-1.08252 -4.46371,-5 v -3 h -5 -5 v 60.5 c 0,33.275 -0.16875,60.49569 -0.375,60.49043 -0.20625,-0.005 -2.175,-1.3031 -4.375,-2.88408 z"
       id="path4770"
       inkscape:connector-curvature="0" /><path
       transform="rotate(6.9143347)"
       d="m 397.147,209.36209 a 130,130 0 0 1 -129.98241,130 A 130,130 0 0 1 137.14701,209.39726 130,130 0 0 1 267.09425,79.362102 130,130 0 0 1 397.14698,209.29176 l -129.99998,0.0703 z"
       sodipodi:end="6.2826443"
       sodipodi:start="0"
       sodipodi:ry="130"
       sodipodi:rx="130"
       sodipodi:cy="209.36209"
       sodipodi:cx="267.147"
       sodipodi:type="arc"
       id="path5017"
       style="display:inline;opacity:0.49000005;fill:none;stroke:none;stroke-width:1;stroke-miterlimit:4;stroke-dasharray:none;stroke-opacity:1" /><text
       transform="rotate(177.49816,240.25632,239.02255)"
       inkscape:transform-center-y="72.909153"
       inkscape:transform-center-x="-1.0302693"
       id="text1326"
       style="font-style:normal;font-weight:normal;font-size:40px;line-height:1.25;font-family:sans-serif;letter-spacing:0px;word-spacing:0px;display:inline;opacity:1;fill:#e6141b;fill-opacity:1;stroke:none;stroke-width:0.75"
       xml:space="preserve"
       x="-536.93671"
       y="-218.58893"><textPath
         id="path1315"
         xlink:href="#path140"><tspan
   id="tspan1322"
   style="font-size:24px;fill:#e6141b;fill-opacity:1"><tspan
   dy="-2"
   style="fill:#000000"
   id="tspan1318">LONDON</tspan> TECH <tspan
   style="font-style:normal;font-variant:normal;font-weight:bold;font-stretch:normal;font-family:sans-serif;-inkscape-font-specification:'sans-serif Bold';fill:#000000;fill-opacity:1"
   id="tspan1320">WORKERS</tspan> COALITION</tspan></textPath></text>
</g><g
     style="display:inline"
     inkscape:label="Tagline"
     id="g974"
     inkscape:groupmode="layer"><path
       inkscape:connector-curvature="0"
       id="path970"
       d="m 177.25,330.20635 -4,-2.87453 -0.1271,-57.61591 L 172.9958,212.1 H 167.9979 163 v 3 c 0,3.91748 -0.96641,5 -4.46371,5 -2.06605,0 -2.63097,-0.21264 -3.5,-1.31743 C 154.09714,217.58863 154,216.79189 154,210.28257 V 203.1 h 23.5 23.5 v 7.18257 c 0,6.50932 -0.0971,7.30606 -1.03629,8.5 -0.86903,1.10479 -1.43395,1.31743 -3.5,1.31743 -3.4973,0 -4.46371,-1.08252 -4.46371,-5 v -3 h -5 -5 v 60.5 c 0,33.275 -0.16875,60.49569 -0.375,60.49043 -0.20625,-0.005 -2.175,-1.3031 -4.375,-2.88408 z"
       style="fill:none;fill-opacity:1;stroke:none;stroke-width:5;stroke-miterlimit:4;stroke-dasharray:none;stroke-opacity:1" /><path
       inkscape:connector-curvature="0"
       id="path972"
       d="m 177.25,330.20635 -4,-2.87453 -0.1271,-57.61591 L 172.9958,212.1 H 167.9979 163 v 3 c 0,3.91748 -0.96641,5 -4.46371,5 -2.06605,0 -2.63097,-0.21264 -3.5,-1.31743 C 154.09714,217.58863 154,216.79189 154,210.28257 V 203.1 h 23.5 23.5 v 7.18257 c 0,6.50932 -0.0971,7.30606 -1.03629,8.5 -0.86903,1.10479 -1.43395,1.31743 -3.5,1.31743 -3.4973,0 -4.46371,-1.08252 -4.46371,-5 v -3 h -5 -5 v 60.5 c 0,33.275 -0.16875,60.49569 -0.375,60.49043 -0.20625,-0.005 -2.175,-1.3031 -4.375,-2.88408 z"
       style="fill:none;fill-opacity:1;stroke:none;stroke-width:5;stroke-miterlimit:4;stroke-dasharray:none;stroke-opacity:1" /><flowRoot
       xml:space="preserve"
       id="flowRoot4665"
       style="font-style:normal;font-weight:normal;font-size:40px;line-height:1.25;font-family:sans-serif;letter-spacing:0px;word-spacing:0px;fill:#000000;fill-opacity:1;stroke:none"><flowRegion
         id="flowRegion4667"><rect
           id="rect4669"
           width="5"
           height="45"
           x="290"
           y="235" /></flowRegion><flowPara
         id="flowPara4671" /></flowRoot><path
       style="opacity:0.49000005;fill:none;stroke:none;stroke-width:1;stroke-miterlimit:4;stroke-dasharray:none;stroke-opacity:1"
       id="path1307"
       sodipodi:type="arc"
       sodipodi:cx="267.147"
       sodipodi:cy="209.36209"
       sodipodi:rx="130"
       sodipodi:ry="130"
       sodipodi:start="0"
       sodipodi:end="6.2826443"
       d="m 397.147,209.36209 a 130,130 0 0 1 -129.98241,130 A 130,130 0 0 1 137.14701,209.39726 130,130 0 0 1 267.09425,79.362102 130,130 0 0 1 397.14698,209.29176 l -129.99998,0.0703 z"
       transform="rotate(6.9143347)" /></g></svg>